<mxfile><diagram name="Page-1" id="ZSkcajXZRbt3x14Z_4z5"><mxGraphModel dx="2316" dy="667" grid="1" gridSize="10" guides="1" tooltips="1" connect="1" arrows="1" fold="1" page="1" pageScale="1" pageWidth="1200" pageHeight="1600" math="0" shadow="0"><root><mxCell id="0"/><mxCell id="1" parent="0"/><mxCell id="YGuV6R9-KsbICo-k-Tc9-1" value="Passive Infrared Sensor" style="points=[[0.015,0.015,0],[0.5,0,0],[0.985,0.015,0],[1,0.22,0],[0.985,0.43,0],[0.73,0.85,0],[0.5,1,0],[0.285,0.85,0],[0.015,0.43,0],[0,0.22,0]];verticalLabelPosition=bottom;sketch=0;html=1;verticalAlign=top;aspect=fixed;align=center;pointerEvents=1;shape=mxgraph.cisco19.surveillance_camera;fillColor=#005073;strokeColor=none;" parent="1" vertex="1"><mxGeometry x="-201.5" y="750" width="64" height="50" as="geometry"/></mxCell><mxCell id="YGuV6R9-KsbICo-k-Tc9-2" value="IP camera" style="points=[[0,0.5,0],[0.19,0.02,0],[0.59,0,0],[0.985,0.02,0],[1,0.5,0],[0.985,0.98,0],[0.59,1,0],[0.19,0.98,0]];verticalLabelPosition=bottom;sketch=0;html=1;verticalAlign=top;aspect=fixed;align=center;pointerEvents=1;shape=mxgraph.cisco19.camera;fillColor=#005073;strokeColor=none;flipV=0;flipH=0;horizontal=1;" parent="1" vertex="1"><mxGeometry x="-224.7" y="664" width="90" height="50" as="geometry"/></mxCell><mxCell id="YGuV6R9-KsbICo-k-Tc9-3" value="" style="shadow=0;dashed=0;html=1;strokeColor=none;fillColor=#4495D1;labelPosition=center;verticalLabelPosition=bottom;verticalAlign=top;align=center;outlineConnect=0;shape=mxgraph.veeam.company_administrator;" parent="1" vertex="1"><mxGeometry x="94.79999999999994" y="714" width="44.4" height="48.8" as="geometry"/></mxCell><mxCell id="3" value="" style="html=1;verticalLabelPosition=bottom;align=center;labelBackgroundColor=#ffffff;verticalAlign=top;strokeWidth=2;strokeColor=#0080F0;shadow=0;dashed=0;shape=mxgraph.ios7.icons.magnet;pointerEvents=1;rotation=-180;" vertex="1" parent="1"><mxGeometry x="-181.5" y="845" width="24" height="30" as="geometry"/></mxCell><mxCell id="YGuV6R9-KsbICo-k-Tc9-10" value="Telegram Bot" style="verticalLabelPosition=bottom;html=1;verticalAlign=top;align=center;strokeColor=none;fillColor=#00BEF2;shape=mxgraph.azure.mobile;pointerEvents=1;" parent="1" vertex="1"><mxGeometry x="-17.5" y="710" width="35" height="50" as="geometry"/></mxCell><mxCell id="7" value="" style="shape=mxgraph.electrical.electro-mechanical.singleSwitch;aspect=fixed;elSwitchState=off;" vertex="1" parent="1"><mxGeometry x="-207" y="890" width="75" height="20" as="geometry"/></mxCell><mxCell id="8" value="relay" style="pointerEvents=1;verticalLabelPosition=middle;shadow=0;dashed=0;align=center;html=1;verticalAlign=middle;shape=mxgraph.electrical.electro-mechanical.relay;labelPosition=center;" vertex="1" parent="1"><mxGeometry x="-50" y="795" width="100" height="50" as="geometry"/></mxCell><mxCell id="9" value="Inputs" style="text;html=1;strokeColor=none;fillColor=none;align=center;verticalAlign=middle;whiteSpace=wrap;rounded=0;fontSize=15;" vertex="1" parent="1"><mxGeometry x="-199.5" y="600" width="60" height="30" as="geometry"/></mxCell><mxCell id="10" value="Outputs" style="text;html=1;strokeColor=none;fillColor=none;align=center;verticalAlign=middle;whiteSpace=wrap;rounded=0;fontSize=15;" vertex="1" parent="1"><mxGeometry x="-30" y="600" width="60" height="30" as="geometry"/></mxCell><mxCell id="12" value="" style="shape=flexArrow;endArrow=classic;html=1;fontSize=15;" edge="1" parent="1"><mxGeometry width="50" height="50" relative="1" as="geometry"><mxPoint x="-110" y="750" as="sourcePoint"/><mxPoint x="-40" y="750" as="targetPoint"/></mxGeometry></mxCell></root></mxGraphModel></diagram></mxfile>